<svg width="75" height="25" viewBox="0 0 36 8" fill="none" xmlns="http://www.w3.org/2000/svg">
<path d="M31.5452 3.24427H34.2622V0.0877686H31.3054V0.527282L30.7461 0.0877686H28.1889V0.647149L27.7094 0.0877686H22.9946C22.8348 0.0877686 22.675 0.127724 22.5152 0.127724C22.3554 0.127724 22.2754 0.16768 22.1156 0.207636C21.9558 0.247591 21.8759 0.247591 21.7161 0.287547V0.0877686H8.21103L7.81147 0.607194L7.41191 0.0877686H4.21545V0.647149L3.73599 0.0877686H1.17882L0.0600586 1.44626V3.24427H1.89802L2.21767 2.80476H2.85696L3.17661 3.24427H17.241V2.84471L17.8004 3.24427H21.7161V3.00454C21.796 3.04449 21.9558 3.04449 22.0357 3.08445C22.1156 3.1244 22.2754 3.1244 22.3554 3.16436C22.5152 3.20432 22.675 3.20432 22.8348 3.20432H25.7116L26.0313 2.7648H26.6706L26.9902 3.20432H30.9059V2.80476L31.5452 3.24427ZM35.9403 7.23984V4.28312H13.9647L13.4053 4.68268L12.8459 4.28312H6.45297V7.43962H12.8459L13.4053 7.04006L13.9647 7.43962H17.9602V6.76037H17.8004C18.3598 6.76037 18.8393 6.72042 19.2388 6.64051V7.47958H22.1156V7.08002L22.675 7.47958H34.5818C35.0613 7.39967 35.5407 7.35971 35.9403 7.23984Z" fill="#000"/>
<path d="M34.5818 6.48067H32.4242V6.92018H34.5019C35.3809 6.92018 35.9403 6.64049 35.9403 6.24093C35.9403 5.84138 35.4608 5.6416 34.6617 5.6416H33.7028C33.463 5.6416 33.3032 5.56169 33.3032 5.44182C33.3032 5.32195 33.463 5.24204 33.7028 5.24204H35.5407L35.9403 4.80253H33.7827C32.9037 4.80253 32.3443 5.08222 32.3443 5.44182C32.3443 5.84138 32.8238 6.04116 33.6229 6.04116H34.5818C34.8215 6.04116 34.9814 6.12107 34.9814 6.24093C35.0613 6.40076 34.9015 6.48067 34.5818 6.48067ZM30.6661 6.48067H28.5085V6.92018H30.5862C31.4653 6.92018 32.0246 6.64049 32.0246 6.24093C32.0246 5.84138 31.5452 5.6416 30.7461 5.6416H29.7871C29.5474 5.6416 29.3876 5.56169 29.3876 5.44182C29.3876 5.32195 29.5474 5.24204 29.7871 5.24204H31.6251L32.0246 4.80253H29.867C28.988 4.80253 28.4286 5.08222 28.4286 5.44182C28.4286 5.84138 28.9081 6.04116 29.7072 6.04116H30.6661C30.9059 6.04116 31.0657 6.12107 31.0657 6.24093C31.1456 6.40076 30.9059 6.48067 30.6661 6.48067ZM27.8692 5.20209V4.76257H24.513V6.88023H27.8692V6.44071H25.4719V6.0012H27.7893V5.56169H25.4719V5.16213H27.8692V5.20209ZM22.4353 5.20209C22.8348 5.20209 22.9946 5.32195 22.9946 5.44182C22.9946 5.56169 22.8348 5.68155 22.4353 5.68155H21.2366V5.16213L22.4353 5.20209ZM21.2366 6.12107H21.7161L22.9946 6.88023H24.1933L22.7549 6.08111C23.4741 6.0012 23.8737 5.76147 23.8737 5.44182C23.8737 5.04226 23.3143 4.76257 22.4353 4.76257H20.1977V6.88023H21.1567L21.2366 6.12107ZM18.6794 5.48178C18.6794 5.6416 18.5196 5.76147 18.12 5.76147H16.8415V5.20209H18.0401C18.4397 5.20209 18.6794 5.32195 18.6794 5.48178ZM15.8825 4.76257V6.88023H16.8415V6.16102H18.12C18.9991 6.16102 19.6384 5.88133 19.6384 5.44182C19.6384 5.04226 19.079 4.72262 18.2 4.72262L15.8825 4.76257ZM14.4441 6.88023H15.6428L13.9647 5.80142L15.6428 4.76257H14.4441L13.4053 5.44182L12.3664 4.76257H11.1678L12.8459 5.80142L11.1678 6.84027H12.3664L13.4053 6.16102L14.4441 6.88023ZM10.8481 5.20209V4.76257H7.49182V6.88023H10.8481V6.44071H8.45076V6.0012H10.7682V5.56169H8.45076V5.16213H10.8481V5.20209ZM30.2666 1.44625L31.9447 2.72483H33.1434V0.607178H32.1845V2.00563L31.9447 1.80585L30.4264 0.607178H29.1478V2.72483H30.1068V1.28642L30.2666 1.44625ZM26.1112 1.40629L26.4308 0.966778L26.7505 1.40629L27.15 1.88576H25.7116L26.1112 1.40629ZM27.7893 2.72483H28.8282L26.9902 0.607178H25.7116L23.8737 2.72483H24.9125L25.3121 2.28532H27.3898L27.7893 2.72483ZM23.3143 2.72483L23.7138 2.28532H23.4741C22.7549 2.28532 22.3554 2.04558 22.3554 1.68598V1.64603C22.3554 1.28642 22.7549 1.04669 23.4741 1.04669H24.513V0.607178H23.3942C22.1156 0.607178 21.3964 1.04669 21.3964 1.64603V1.68598C21.3964 2.32527 22.1156 2.72483 23.3143 2.72483ZM19.7183 2.72483H20.6772V0.647133H19.7183V2.72483ZM17.6406 1.04669C18.0401 1.04669 18.2 1.16656 18.2 1.28642C18.2 1.40629 18.0401 1.52616 17.6406 1.52616H16.4419V1.00673L17.6406 1.04669ZM16.4419 1.96567H16.9214L18.2 2.72483H19.3986L17.9602 1.92572C18.6794 1.8458 19.079 1.60607 19.079 1.28642C19.079 0.886868 18.5196 0.607178 17.6406 0.607178H15.4031V2.72483H16.362L16.4419 1.96567ZM14.6839 1.04669V0.607178H11.3276V2.72483H14.6839V2.28532H12.2865V1.8458H14.6039V1.40629H12.2865V1.00673H14.6839V1.04669ZM7.41191 2.72483H8.29094L9.48961 1.00673V2.72483H10.4485V0.607178H8.85032L7.89138 2.04558L6.93244 0.607178H5.33421V2.72483H6.29315V1.00673L7.41191 2.72483ZM2.21767 1.40629L2.53731 0.966778L2.85696 1.40629L3.25652 1.88576H1.81811L2.21767 1.40629ZM3.89581 2.72483H4.93466L3.09669 0.607178H1.89802L0.0600586 2.72483H1.09891L1.49846 2.28532H3.57616L3.89581 2.72483Z" fill="#fff"/>
</svg>