<svg width="50" height="25" viewBox="0 0 50 25" fill="none" xmlns="http://www.w3.org/2000/svg">
<g clip-path="url(#clip0_2008_511)">
<path d="M13.7281 0H8.5472C6.2579 0.124355 4.38664 1.18368 3.84633 3.36819C3.56459 4.50745 3.40954 5.75867 3.18924 6.93965C2.06927 12.9445 1.07618 19.1149 0.00488281 25H40.3405C43.4588 25 45.6001 24.2429 46.1785 21.3993C46.4473 20.0784 46.7048 18.5825 46.962 17.1312C47.9645 11.4729 48.9679 5.81493 49.9949 0H13.7281Z" fill="#323234"/>
<path d="M13.3236 8.885C13.5403 8.71352 13.8194 7.93256 13.5006 7.60741C13.3996 7.50447 13.2307 7.47459 12.9951 7.52037C12.7766 7.56276 12.6509 7.64811 12.5655 7.78171C12.4283 7.99648 12.3024 8.64441 12.5149 8.88512C12.722 9.1194 13.1858 8.99403 13.3236 8.885V8.885ZM10.2404 7.60741C10.0851 8.76471 9.91025 9.89946 9.73489 11.0337C8.60903 11.0473 7.45952 11.0975 6.3736 11.0046C6.5787 9.89495 6.7258 8.7186 6.92961 7.60741H5.71652C5.28229 10.4379 4.88721 13.3136 4.40234 16.086H5.64076C5.83496 14.664 6.0167 13.2273 6.27253 11.8757C7.32842 11.8459 8.59392 11.7938 9.6086 11.9048C9.39938 13.3099 9.14659 14.6646 8.95151 16.086H10.1899C10.5879 13.2136 11.0071 10.3659 11.5042 7.60741H10.2404V7.60741ZM27.7545 10.0465C26.791 9.59934 26.0334 10.3549 25.6822 11.0627C25.7619 10.7479 25.7946 10.3791 25.8592 10.0465H24.8988C24.664 12.1384 24.318 14.1024 23.989 16.086H25.0758C25.2281 14.9086 25.2939 13.3214 25.6317 12.1951C25.9018 11.2951 26.6085 10.5283 27.6283 10.9466C27.6425 10.6146 27.7252 10.3611 27.7545 10.0465V10.0465ZM28.361 14.6633C28.2608 14.3659 28.235 13.875 28.26 13.5017C28.3161 12.6628 28.5823 11.6413 28.9929 11.1789C29.5596 10.5406 30.6784 10.6463 31.5708 11.0047C31.5984 10.6591 31.6589 10.3509 31.6972 10.0175C30.2337 9.74286 28.845 9.91378 28.1086 10.8015C27.3876 11.6705 26.9152 13.6679 27.2491 14.9246C27.6401 16.3952 29.3933 16.4752 30.8127 15.9119C30.8755 15.6163 30.9088 15.2868 30.9643 14.9828C30.1886 15.4456 28.7057 15.6862 28.361 14.6633V14.6633ZM40.5679 10.0755C39.6074 9.52369 38.8077 10.4495 38.4956 11.0046C38.5845 10.7198 38.5896 10.3384 38.6724 10.0464H37.7121C37.4531 12.1202 37.1411 14.1328 36.7771 16.0859H37.8891C37.8961 15.2854 38.033 14.6933 38.1417 13.9084C38.3741 12.2321 38.7154 10.394 40.4165 10.9465C40.4727 10.6631 40.4962 10.3415 40.5679 10.0755ZM12.2116 10.0465C12.1822 10.0513 12.1841 10.0924 12.1863 10.1335C11.9469 12.191 11.6227 14.1513 11.2765 16.0859H12.3632C12.6244 14.0146 12.9235 11.9871 13.2983 10.0464L12.2116 10.0465V10.0465ZM21.7648 9.93035C20.9795 9.99992 20.3158 10.2595 19.8441 10.8305C19.2655 11.5307 18.797 13.079 18.9343 14.4891C19.1302 16.5007 21.3101 16.4284 23.0537 15.9409C23.0835 15.5878 23.1579 15.286 23.2054 14.9536C22.4871 15.2624 21.24 15.6934 20.5011 15.157C19.9433 14.7517 19.94 13.7258 20.122 12.834C21.2939 12.7912 22.5119 12.7993 23.6854 12.834C23.7598 12.202 23.9728 11.5129 23.7865 10.8887C23.5408 10.0645 22.6605 9.85098 21.7648 9.93035ZM22.801 12.1371H20.2483C20.3291 11.4629 20.8571 10.7218 21.6889 10.6853C22.4718 10.6509 23.0324 11.0155 22.801 12.1371V12.1371ZM17.6453 10.0465C16.7256 9.64951 15.6046 10.1234 15.1186 10.5741C15.1203 10.594 15.107 10.5967 15.0927 10.5981C15.1009 10.5901 15.1099 10.5821 15.1186 10.5741C15.1185 10.5725 15.1183 10.5708 15.1181 10.5692C15.1262 10.3753 15.1856 10.2403 15.1938 10.0465H14.2587C13.8691 13.025 13.407 15.9203 12.9193 18.7863H14.006C14.1634 17.6701 14.2672 16.4925 14.4863 15.4472C14.7345 16.5467 16.355 16.3366 17.0389 15.9118C18.4497 15.0351 19.538 10.8632 17.6453 10.0465V10.0465ZM16.7861 14.9536C16.2047 15.6611 14.7753 15.6505 14.6631 14.4599C14.6144 13.942 14.7823 13.3989 14.8655 12.863C14.9494 12.3206 15.0099 11.8002 15.0928 11.3241C15.6654 10.5207 17.3483 10.4236 17.519 11.7596C17.6671 12.9195 17.2675 14.3677 16.7861 14.9536V14.9536ZM44.6115 7.43322C44.5184 8.37146 44.3938 9.27374 44.2325 10.1335C41.5668 9.16404 39.932 11.4174 39.9615 14.1987C39.9672 14.7366 40.0478 15.27 40.3404 15.6505C40.8452 16.3059 42.2899 16.463 43.0195 15.9117C43.1606 15.805 43.305 15.6109 43.3985 15.4763C43.4689 15.3749 43.5804 15.1094 43.6007 15.1859C43.5623 15.4804 43.505 15.7535 43.4998 16.0859H44.4854C44.6755 12.9552 45.2627 10.2813 45.6985 7.43311H44.6116V7.43322H44.6115ZM42.1854 15.4181C41.4538 15.4361 41.0901 14.9159 41.0733 14.0535C41.0441 12.5429 41.6209 10.8648 42.7919 10.7143C43.3372 10.6442 43.7319 10.7899 44.1314 10.9466C43.7646 12.6434 43.897 15.3759 42.1854 15.4181V15.4181ZM32.8091 10.0465C32.7556 10.3915 32.6734 10.7037 32.6069 11.0337C33.2482 10.8489 35.2451 10.2825 35.4375 11.2659C35.5014 11.5926 35.3912 11.9398 35.3111 12.1951C33.5055 11.9986 32.0337 12.3433 31.6465 13.8211C31.3872 14.811 31.6756 15.7851 32.2278 16.057C33.2915 16.5806 34.5852 15.9808 35.0331 15.157C34.9866 15.4421 34.9425 15.7304 34.9575 16.086H35.8924C35.9025 15.0571 36.0328 14.2243 36.1705 13.2984C36.2878 12.51 36.5087 11.7295 36.4738 11.0337C36.3933 9.44004 34.0954 10.0038 32.8091 10.0465V10.0465ZM34.5782 14.9245C34.0181 15.5544 32.4461 15.7333 32.6069 14.2277C32.7404 12.9771 33.9256 12.7114 35.2098 12.8919C35.1145 13.576 35.0049 14.4446 34.5782 14.9245V14.9245Z" fill="white"/>
</g>
<defs>
<clipPath id="clip0_2008_511">
<rect width="50" height="25" fill="white"/>
</clipPath>
</defs>
</svg>